<?xml version="1.0" encoding="UTF-8"?>
<svg id="Layer_1" data-name="Layer 1" xmlns="http://www.w3.org/2000/svg" xmlns:xlink="http://www.w3.org/1999/xlink" viewBox="0 0 120 120">
  <defs>
    <style>
      .cls-1 {
        fill: #363436;
      }

      .cls-2 {
        filter: url(#drop-shadow-3);
      }

      .cls-3 {
        fill: url(#radial-gradient);
      }

      .cls-4 {
        fill: #fff;
        filter: url(#drop-shadow-1);
      }

      .cls-5 {
        fill: url(#radial-gradient-2);
        opacity: .43;
      }

      .cls-6 {
        filter: url(#drop-shadow-2);
      }

      .cls-7 {
        fill: #ed1c24;
      }

      .cls-8 {
        fill: #231f20;
      }

      .cls-9 {
        fill: #58595b;
      }
    </style>
    <filter id="drop-shadow-1" filterUnits="userSpaceOnUse">
      <feOffset dx="0" dy="0"/>
      <feGaussianBlur result="blur" stdDeviation="5"/>
      <feFlood flood-color="#000" flood-opacity=".75"/>
      <feComposite in2="blur" operator="in"/>
      <feComposite in="SourceGraphic"/>
    </filter>
    <radialGradient id="radial-gradient" cx="59.31" cy="60.25" fx="46.96" fy="60.25" r="72.02" gradientUnits="userSpaceOnUse">
      <stop offset="0" stop-color="#fff"/>
      <stop offset=".16" stop-color="#fbfbfb"/>
      <stop offset=".29" stop-color="#f1f1f1"/>
      <stop offset=".41" stop-color="#e0e0e0"/>
      <stop offset=".52" stop-color="#c8c8c8"/>
      <stop offset=".63" stop-color="#a9a9a9"/>
      <stop offset=".74" stop-color="#838383"/>
      <stop offset=".84" stop-color="#565656"/>
      <stop offset=".94" stop-color="#232323"/>
      <stop offset="1" stop-color="#000"/>
    </radialGradient>
    <filter id="drop-shadow-2" filterUnits="userSpaceOnUse">
      <feOffset dx="0" dy="0"/>
      <feGaussianBlur result="blur-2" stdDeviation="5"/>
      <feFlood flood-color="#000" flood-opacity=".75"/>
      <feComposite in2="blur-2" operator="in"/>
      <feComposite in="SourceGraphic"/>
    </filter>
    <radialGradient id="radial-gradient-2" cx="58.86" cy="58.84" fx="58.86" fy="58.84" r="44.8" gradientUnits="userSpaceOnUse">
      <stop offset="0" stop-color="#fff" stop-opacity="0"/>
      <stop offset=".98" stop-color="#000"/>
    </radialGradient>
    <filter id="drop-shadow-3" filterUnits="userSpaceOnUse">
      <feOffset dx="0" dy="0"/>
      <feGaussianBlur result="blur-3" stdDeviation="5"/>
      <feFlood flood-color="#000" flood-opacity=".75"/>
      <feComposite in2="blur-3" operator="in"/>
      <feComposite in="SourceGraphic"/>
    </filter>
  </defs>
  <circle class="cls-4" cx="59.86" cy="60" r="45.9"/>
  <path class="cls-3" d="M105.3,60.07c0,25.02-20.28,45.3-45.3,45.3-14.14,0-26.78-6.48-35.08-16.65,8.06,7.42,18.83,11.94,30.65,11.94,25.02,0,45.3-20.28,45.3-45.3,0-10.87-3.83-20.85-10.22-28.65,9.01,8.27,14.65,20.15,14.65,33.35Z"/>
  <g class="cls-6">
    <path class="cls-8" d="M86.83,86.97l-22.45-20.61-.15-.14c-1.39,1.01-3.1,1.61-4.96,1.61-2.31,0-4.4-.93-5.92-2.44-.04-.04-.08-.07-.12-.12-1.48-1.52-2.39-3.6-2.39-5.88,0-4.66,3.78-8.43,8.43-8.43,2.42,0,4.6,1.02,6.13,2.65,.04,.03,.08,.07,.11,.12,1.36,1.49,2.19,3.49,2.19,5.67,0,1.85-.6,3.57-1.61,4.96l.15,.16,20.6,22.45Z"/>
    <path class="cls-8" d="M64.38,66.37c-1.39,1.02-3.11,1.62-4.97,1.62-2.39,0-4.54-.99-6.07-2.59,1.52,1.51,3.61,2.44,5.92,2.44,1.86,0,3.57-.6,4.96-1.61l.15,.14Z"/>
    <path class="cls-8" d="M67.84,59.55c0,1.86-.6,3.57-1.61,4.97l-.15-.16c1.01-1.39,1.61-3.11,1.61-4.96,0-2.18-.83-4.17-2.19-5.67,1.45,1.51,2.34,3.56,2.34,5.82Z"/>
  </g>
  <g>
    <g>
      <rect class="cls-8" x="90.48" y="40.2" width="5.87" height=".84" transform="translate(-7.8 52.15) rotate(-30)"/>
      <rect class="cls-8" x="23.37" y="78.95" width="5.87" height=".84" transform="translate(-36.16 23.79) rotate(-30)"/>
    </g>
    <g>
      <rect class="cls-8" x="93.34" y="46.33" width="5.87" height=".84" transform="translate(-10.18 35.75) rotate(-20)"/>
      <rect class="cls-8" x="20.51" y="72.83" width="5.87" height=".84" transform="translate(-23.64 12.44) rotate(-20)"/>
    </g>
    <g>
      <rect class="cls-8" x="95.08" y="52.85" width="5.87" height=".84" transform="translate(-7.76 17.83) rotate(-10)"/>
      <rect class="cls-8" x="18.76" y="66.31" width="5.87" height=".84" transform="translate(-11.26 4.78) rotate(-10)"/>
    </g>
    <g>
      <rect class="cls-8" x="95.67" y="59.58" width="5.87" height=".84"/>
      <rect class="cls-8" x="18.18" y="59.58" width="5.87" height=".84"/>
    </g>
    <g>
      <rect class="cls-8" x="97.6" y="63.79" width=".84" height="5.87" transform="translate(15.28 151.67) rotate(-80)"/>
      <rect class="cls-8" x="21.28" y="50.34" width=".84" height="5.87" transform="translate(-34.53 65.39) rotate(-80)"/>
    </g>
    <g>
      <rect class="cls-8" x="95.85" y="70.32" width=".84" height="5.87" transform="translate(-5.49 138.66) rotate(-70)"/>
      <rect class="cls-8" x="23.03" y="43.81" width=".84" height="5.87" transform="translate(-28.5 52.79) rotate(-70)"/>
    </g>
    <g>
      <rect class="cls-8" x="92.99" y="76.44" width=".84" height="5.87" transform="translate(-22.03 120.59) rotate(-60)"/>
      <rect class="cls-8" x="25.88" y="37.69" width=".84" height="5.87" transform="translate(-22.03 43.09) rotate(-60)"/>
    </g>
    <g>
      <rect class="cls-8" x="89.12" y="81.97" width=".84" height="5.87" transform="translate(-33.06 98.92) rotate(-50)"/>
      <rect class="cls-8" x="29.76" y="32.16" width=".84" height="5.87" transform="translate(-16.1 35.65) rotate(-50)"/>
    </g>
    <g>
      <rect class="cls-8" x="84.34" y="86.75" width=".84" height="5.87" transform="translate(-37.82 75.47) rotate(-40)"/>
      <rect class="cls-8" x="34.53" y="27.38" width=".84" height="5.87" transform="translate(-11.31 29.56) rotate(-40)"/>
    </g>
    <rect class="cls-8" x="40.06" y="23.51" width=".84" height="5.87" transform="translate(-7.8 23.79) rotate(-30)"/>
    <rect class="cls-8" x="46.19" y="20.65" width=".84" height="5.87" transform="translate(-5.26 17.36) rotate(-20)"/>
    <rect class="cls-8" x="52.71" y="18.91" width=".84" height="5.87" transform="translate(-2.99 9.56) rotate(-10)"/>
    <rect class="cls-8" x="59.44" y="18.32" width=".84" height="5.87"/>
    <rect class="cls-8" x="63.65" y="21.42" width="5.87" height=".84" transform="translate(33.52 83.62) rotate(-80)"/>
    <rect class="cls-8" x="70.18" y="23.17" width="5.87" height=".84" transform="translate(25.94 84.22) rotate(-70)"/>
    <rect class="cls-8" x="76.3" y="26.02" width="5.87" height=".84" transform="translate(16.72 81.84) rotate(-60)"/>
    <g>
      <rect class="cls-8" x="32.02" y="89.26" width="5.87" height=".84" transform="translate(-56.22 58.81) rotate(-50)"/>
      <rect class="cls-8" x="81.83" y="29.9" width="5.87" height=".84" transform="translate(7.06 75.76) rotate(-50)"/>
    </g>
    <g>
      <rect class="cls-8" x="27.24" y="84.49" width="5.87" height=".84" transform="translate(-47.52 39.26) rotate(-40)"/>
      <rect class="cls-8" x="86.61" y="34.67" width="5.87" height=".84" transform="translate(-1.61 65.77) rotate(-40)"/>
    </g>
    <g>
      <rect class="cls-8" x="23.37" y="78.95" width="5.87" height=".84" transform="translate(-36.16 23.79) rotate(-30)"/>
      <rect class="cls-8" x="90.48" y="40.2" width="5.87" height=".84" transform="translate(-7.8 52.15) rotate(-30)"/>
    </g>
    <g>
      <rect class="cls-8" x="20.51" y="72.83" width="5.87" height=".84" transform="translate(-23.64 12.44) rotate(-20)"/>
      <rect class="cls-8" x="93.34" y="46.33" width="5.87" height=".84" transform="translate(-10.18 35.75) rotate(-20)"/>
    </g>
    <g>
      <rect class="cls-8" x="18.76" y="66.31" width="5.87" height=".84" transform="translate(-11.26 4.78) rotate(-10)"/>
      <rect class="cls-8" x="95.08" y="52.85" width="5.87" height=".84" transform="translate(-7.76 17.83) rotate(-10)"/>
    </g>
    <g>
      <rect class="cls-8" x="18.18" y="59.58" width="5.87" height=".84"/>
      <rect class="cls-8" x="95.67" y="59.58" width="5.87" height=".84"/>
    </g>
    <g>
      <rect class="cls-8" x="21.28" y="50.34" width=".84" height="5.87" transform="translate(-34.53 65.39) rotate(-80)"/>
      <rect class="cls-8" x="97.6" y="63.79" width=".84" height="5.87" transform="translate(15.28 151.67) rotate(-80)"/>
    </g>
    <g>
      <rect class="cls-8" x="23.03" y="43.81" width=".84" height="5.87" transform="translate(-28.5 52.79) rotate(-70)"/>
      <rect class="cls-8" x="95.85" y="70.32" width=".84" height="5.87" transform="translate(-5.49 138.66) rotate(-70)"/>
    </g>
    <g>
      <rect class="cls-8" x="25.88" y="37.69" width=".84" height="5.87" transform="translate(-22.03 43.09) rotate(-60)"/>
      <rect class="cls-8" x="92.99" y="76.44" width=".84" height="5.87" transform="translate(-22.03 120.59) rotate(-60)"/>
    </g>
    <g>
      <rect class="cls-8" x="29.76" y="32.16" width=".84" height="5.87" transform="translate(-16.1 35.65) rotate(-50)"/>
      <rect class="cls-8" x="89.12" y="81.97" width=".84" height="5.87" transform="translate(-33.06 98.92) rotate(-50)"/>
    </g>
    <rect class="cls-8" x="34.53" y="27.38" width=".84" height="5.87" transform="translate(-11.31 29.56) rotate(-40)"/>
    <rect class="cls-8" x="40.06" y="23.51" width=".84" height="5.87" transform="translate(-7.8 23.79) rotate(-30)"/>
    <rect class="cls-8" x="46.19" y="20.65" width=".84" height="5.87" transform="translate(-5.26 17.36) rotate(-20)"/>
    <rect class="cls-8" x="52.71" y="18.91" width=".84" height="5.87" transform="translate(-2.99 9.56) rotate(-10)"/>
    <rect class="cls-8" x="59.44" y="18.32" width=".84" height="5.87"/>
  </g>
  <g>
    <polygon class="cls-7" points="86.83 86.97 65.66 63.89 63.76 65.79 86.83 86.97"/>
    <circle class="cls-1" cx="59.26" cy="59.4" r="8.43"/>
    <path class="cls-9" d="M67.84,59.55c0,4.66-3.78,8.44-8.43,8.44-2.61,0-4.94-1.19-6.48-3.04,1.46,1.2,3.32,1.92,5.36,1.92,4.66,0,8.43-3.78,8.43-8.44,0-2.04-.72-3.91-1.93-5.36,1.87,1.54,3.05,3.88,3.05,6.49Z"/>
  </g>
  <path class="cls-5" d="M103.69,46.09c-4.48-1.46-9.26-2.25-14.24-2.25-25.35,0-45.9,20.55-45.9,45.9,0,4.84,.75,9.5,2.13,13.88-18.38-5.99-31.66-23.27-31.66-43.64,0-25.35,20.55-45.9,45.9-45.9,20.51,0,37.88,13.45,43.76,32.02Z"/>
  <g class="cls-2">
    <path class="cls-8" d="M60,110c-27.57,0-50-22.43-50-50S32.43,10,60,10s50,22.43,50,50-22.43,50-50,50Zm0-94.23c-24.39,0-44.23,19.84-44.23,44.23s19.84,44.23,44.23,44.23,44.23-19.84,44.23-44.23S84.39,15.77,60,15.77Z"/>
  </g>
</svg>